<?xml version="1.0" standalone="no"?>
<!DOCTYPE svg PUBLIC "-//W3C//DTD SVG 20010904//EN"
 "http://www.w3.org/TR/2001/REC-SVG-20010904/DTD/svg10.dtd">
<svg version="1.0" xmlns="http://www.w3.org/2000/svg"
 width="260.000000pt" height="260.000000pt" viewBox="0 0 260.000000 260.000000"
 preserveAspectRatio="xMidYMid meet">
<metadata>
Created by potrace 1.14, written by Peter Selinger 2001-2017
</metadata>
<g transform="translate(0.000000,260.000000) scale(0.100000,-0.100000)"
fill="#000000" stroke="none">
<path d="M1079 2588 c-11 -8 -10 -9 4 -4 11 3 16 2 12 -4 -9 -14 -35 -12 -35
3 0 6 -5 4 -11 -7 -9 -15 -13 -16 -20 -5 -6 10 -9 10 -9 2 0 -7 -7 -10 -15 -7
-8 4 -15 1 -15 -5 0 -6 -5 -11 -11 -11 -5 0 -7 5 -3 12 4 6 -3 4 -16 -5 -17
-12 -28 -13 -41 -6 -14 7 -17 6 -13 -4 3 -8 -2 -17 -11 -21 -9 -3 -13 -2 -10
4 3 6 -1 7 -9 4 -9 -3 -16 -10 -16 -15 0 -4 -7 -6 -15 -3 -8 4 -15 1 -15 -6 0
-9 -4 -9 -17 1 -11 10 -14 10 -9 2 12 -21 -3 -34 -24 -23 -14 8 -21 6 -27 -5
-5 -8 -19 -16 -31 -18 -12 -2 -28 -10 -35 -17 -10 -12 -9 -12 5 -2 12 10 18
10 24 1 4 -7 3 -9 -4 -5 -6 3 -13 2 -17 -3 -3 -5 -15 -8 -26 -6 -14 3 -19 0
-16 -9 4 -9 0 -12 -12 -9 -9 2 -29 -7 -44 -21 -15 -14 -27 -23 -27 -21 0 3
-10 -4 -22 -15 -59 -53 -61 -55 -53 -40 8 13 7 13 -8 1 -9 -7 -17 -20 -17 -28
0 -12 -3 -13 -15 -3 -12 10 -14 8 -10 -8 2 -13 -2 -19 -13 -18 -11 1 -16 -5
-14 -18 2 -11 -1 -15 -7 -11 -6 3 -19 1 -28 -5 -17 -11 -17 -11 0 -6 11 3 15
2 12 -4 -3 -6 -13 -10 -21 -10 -8 0 -19 -11 -26 -25 -6 -13 -16 -22 -21 -18
-6 4 -8 0 -4 -11 4 -10 3 -15 -3 -11 -6 3 -10 1 -10 -5 0 -6 -5 -8 -10 -5 -5
3 -10 -3 -10 -15 0 -12 -4 -18 -10 -15 -5 3 -10 -3 -10 -15 0 -14 -4 -19 -12
-14 -7 5 -9 2 -5 -9 4 -11 2 -14 -8 -11 -10 4 -13 0 -10 -15 2 -14 -1 -18 -11
-14 -9 3 -14 -2 -14 -16 0 -13 -7 -21 -17 -22 -10 0 -13 -3 -6 -6 10 -3 10 -7
0 -18 -7 -7 -15 -11 -18 -9 -3 2 -6 -3 -6 -11 0 -8 5 -11 11 -8 6 4 3 -3 -7
-15 -11 -11 -16 -25 -12 -31 4 -7 0 -8 -11 -4 -14 5 -16 2 -12 -19 4 -20 1
-25 -10 -20 -12 4 -14 0 -10 -16 4 -12 3 -20 -2 -17 -4 3 -11 -2 -14 -11 -3
-9 -2 -12 5 -8 6 3 5 -3 -2 -14 -7 -12 -16 -19 -20 -17 -3 3 -4 -7 -1 -22 4
-20 2 -24 -8 -18 -10 6 -12 4 -7 -8 3 -10 3 -17 -2 -17 -5 0 -7 -11 -6 -25 2
-14 0 -25 -5 -25 -4 0 -11 -7 -14 -16 -3 -8 -2 -12 4 -9 17 10 11 -7 -8 -22
-16 -14 -16 -14 3 -9 17 5 18 4 5 -6 -9 -8 -15 -29 -15 -52 0 -21 -5 -45 -12
-52 -15 -15 -17 -28 -4 -19 5 3 13 1 16 -5 4 -6 1 -9 -7 -8 -10 2 -13 -31 -15
-159 -1 -101 2 -163 8 -163 6 0 7 5 3 12 -5 7 -3 8 5 3 9 -5 10 -10 2 -18 -15
-15 -14 -30 1 -21 10 6 10 4 0 -8 -9 -12 -10 -18 -2 -23 7 -4 9 -18 6 -30 -3
-13 -2 -26 3 -29 4 -3 7 -17 6 -31 -2 -14 1 -27 5 -30 5 -3 7 4 5 15 -2 11 -1
18 4 16 4 -3 7 -25 6 -50 -1 -25 1 -44 4 -41 4 2 11 -8 18 -21 6 -13 7 -22 2
-18 -5 3 -6 -2 -3 -10 3 -8 12 -17 21 -20 13 -5 13 -9 2 -23 -12 -14 -12 -16
0 -8 11 6 13 4 8 -8 -3 -10 -2 -17 4 -17 6 0 7 -4 4 -10 -3 -5 1 -10 9 -10 9
0 16 -5 16 -11 0 -5 -6 -7 -12 -4 -7 4 -5 0 4 -8 14 -11 15 -16 5 -27 -9 -9
-9 -11 0 -6 7 4 22 -13 39 -44 15 -27 31 -47 35 -44 5 3 6 -2 3 -10 -4 -10 5
-27 22 -44 16 -15 30 -34 32 -42 2 -8 8 -17 13 -18 5 -2 7 -8 4 -13 -4 -5 1
-6 10 -3 9 4 15 3 14 -2 -3 -18 1 -37 7 -31 9 9 34 -18 34 -37 0 -8 10 -16 22
-18 13 -2 29 -15 36 -31 8 -15 29 -35 48 -44 19 -9 34 -23 34 -30 0 -8 4 -11
10 -8 5 3 10 1 10 -5 0 -6 4 -9 9 -6 5 3 11 -4 14 -15 4 -15 11 -20 23 -15 12
5 15 2 10 -10 -6 -15 -4 -15 11 -3 14 12 16 12 8 0 -6 -11 -4 -13 9 -8 10 4
15 3 11 -3 -3 -6 -1 -10 5 -10 6 0 8 -5 4 -11 -4 -8 1 -9 16 -4 15 5 20 4 16
-4 -4 -6 0 -11 9 -11 9 0 14 -4 11 -9 -3 -4 6 -7 19 -6 13 2 24 0 24 -3 -3
-19 3 -23 16 -12 13 11 14 10 10 -3 -4 -8 -1 -18 6 -23 8 -4 10 -3 5 4 -4 7
-3 12 3 12 5 0 11 -5 13 -10 2 -6 13 -12 25 -13 12 0 24 -10 27 -21 4 -16 8
-17 20 -7 11 9 15 9 19 -1 4 -10 6 -9 6 2 1 10 6 7 17 -9 12 -16 19 -20 27
-12 8 8 16 6 29 -6 10 -9 18 -11 18 -5 0 6 7 9 15 6 8 -4 12 -10 9 -15 -3 -5
-1 -9 5 -9 5 0 12 6 14 13 4 9 6 9 6 0 1 -7 13 -13 27 -13 16 0 23 -4 18 -12
-5 -7 -3 -8 7 -3 20 13 59 15 59 4 0 -6 -5 -7 -12 -3 -6 4 -8 3 -5 -3 4 -6 83
-10 206 -10 157 0 198 3 194 13 -6 17 26 12 39 -7 8 -11 9 -10 4 4 -5 15 0 17
36 15 26 -1 43 3 46 10 2 7 8 10 13 6 5 -3 9 -1 9 3 0 5 15 8 33 8 22 0 31 4
29 14 -3 12 0 12 11 2 11 -8 16 -8 19 -1 2 6 13 12 26 13 12 1 22 8 22 17 0
13 1 13 10 0 9 -13 12 -13 23 1 6 9 18 14 24 12 7 -3 16 2 19 11 3 9 10 13 15
10 18 -11 30 7 17 24 -12 15 -11 16 5 3 16 -13 20 -13 28 0 5 8 9 10 9 5 0 -6
7 -1 16 10 8 10 13 13 9 7 -10 -21 5 -15 27 10 11 12 17 15 13 7 -4 -8 2 -4
13 9 15 18 21 21 25 10 4 -10 6 -8 7 6 1 11 2 23 2 26 -1 4 7 5 18 2 12 -3 22
1 26 11 3 9 10 13 15 10 5 -3 9 2 9 12 0 13 3 14 15 4 12 -10 14 -8 10 9 -2
12 0 19 6 16 5 -4 12 1 15 9 3 9 10 13 15 10 5 -3 9 0 9 6 0 6 4 9 9 6 5 -3 8
0 7 7 0 6 2 13 7 15 14 4 44 37 40 45 -2 4 1 7 7 7 6 0 8 5 4 13 -5 7 0 6 11
-3 11 -9 16 -10 11 -3 -4 7 -3 13 2 13 5 0 12 9 15 21 4 13 10 18 18 13 8 -4
10 -3 5 5 -4 6 -1 14 8 17 8 3 12 12 9 20 -3 8 1 14 10 14 9 0 19 5 23 12 5 7
2 9 -7 4 -8 -4 -5 1 7 11 11 10 18 25 16 32 -3 8 0 11 6 7 6 -3 13 -2 17 4 3
5 1 10 -6 10 -7 0 -2 8 9 19 12 10 19 21 15 25 -3 3 2 6 13 7 10 0 13 3 7 6
-7 2 -13 9 -13 14 0 6 5 7 10 4 6 -3 10 1 10 9 0 9 9 25 20 36 12 12 15 20 8
20 -10 0 -9 3 1 9 8 5 10 14 6 21 -6 9 -4 11 5 5 10 -6 11 -1 6 21 -5 21 -4
25 4 14 5 -8 10 -13 11 -10 0 3 3 19 5 35 3 17 10 35 17 40 7 6 12 20 11 32
-1 13 4 23 10 23 6 0 5 4 -2 9 -11 7 -11 9 2 14 9 4 16 12 16 19 0 9 -3 9 -11
-2 -9 -12 -10 -12 -5 3 3 10 6 21 6 23 0 3 4 3 8 0 5 -3 9 1 9 9 0 8 -5 15
-11 15 -6 0 -2 7 8 15 11 8 15 15 8 15 -15 0 -10 59 6 69 19 11 12 370 -6 380
-11 6 -11 10 -3 16 9 5 9 10 0 21 -6 7 -9 20 -6 29 4 8 0 21 -8 29 -11 11 -12
16 -2 19 9 4 9 6 -1 6 -7 1 -10 6 -7 11 3 6 2 10 -4 10 -6 0 -7 7 -4 17 5 12
3 14 -8 8 -11 -6 -12 -5 -2 5 10 11 9 16 -5 27 -9 8 -11 12 -4 8 18 -9 15 6
-5 21 -15 11 -15 13 -3 14 10 0 7 7 -10 21 -14 11 -18 17 -10 13 10 -5 8 1 -5
16 -11 13 -14 20 -6 15 11 -6 13 -4 8 9 -4 10 -7 20 -7 22 0 3 -4 2 -10 -1 -6
-3 -10 5 -10 18 0 17 -7 26 -22 30 -17 5 -19 9 -9 21 7 8 8 15 2 18 -5 1 -11
10 -13 18 -2 8 -15 26 -29 40 -14 14 -25 32 -25 40 2 20 -16 39 -32 33 -7 -3
-10 0 -7 9 7 17 -44 80 -58 71 -5 -3 -7 -1 -4 4 7 12 -33 63 -49 63 -13 0 -54
46 -54 61 0 5 -4 7 -10 4 -5 -3 -10 -1 -10 5 0 6 -5 8 -10 5 -6 -4 -10 -3 -9
2 4 23 -3 31 -23 26 -17 -3 -19 -2 -9 5 11 8 9 11 -8 17 -12 3 -19 11 -16 16
3 5 0 6 -8 3 -9 -3 -22 4 -31 18 -9 13 -19 22 -21 21 -16 -8 -34 -1 -29 11 4
11 -1 14 -20 12 -14 -2 -24 0 -22 3 7 10 -19 28 -37 25 -9 -1 -15 2 -14 8 2 9
-18 17 -50 20 -9 1 -10 5 -3 13 8 9 3 12 -19 9 -18 -2 -31 2 -34 10 -3 7 -15
16 -26 19 -14 3 -19 1 -14 -6 4 -7 0 -6 -10 1 -9 8 -21 11 -27 7 -5 -3 -13 0
-16 8 -3 9 -17 14 -35 13 -29 -2 -40 8 -16 17 6 3 2 4 -10 4 -12 -1 -20 -4
-18 -7 2 -4 -2 -7 -10 -7 -8 0 -12 4 -9 8 2 4 0 10 -6 14 -5 3 -10 0 -10 -7 0
-8 -3 -9 -8 -2 -4 5 -23 10 -42 9 -19 -1 -42 2 -50 7 -10 6 -7 7 10 3 17 -4
21 -3 11 3 -19 13 -403 13 -422 0z m51 -8 c0 -5 -4 -10 -10 -10 -5 0 -10 5
-10 10 0 6 5 10 10 10 6 0 10 -4 10 -10z"/>
<path d="M2200 2241 c0 -6 4 -13 10 -16 6 -3 7 1 4 9 -7 18 -14 21 -14 7z"/>
<path d="M3 1505 c0 -8 4 -12 9 -9 5 3 6 10 3 15 -9 13 -12 11 -12 -6z"/>
<path d="M2585 1089 c-4 -6 -5 -12 -2 -15 2 -3 7 2 10 11 7 17 1 20 -8 4z"/>
</g>
</svg>
